<svg width="150" height="43" viewBox="0 0 150 43" fill="none" xmlns="http://www.w3.org/2000/svg">
<g clip-path="url(#clip0_1_2)">
<path d="M67.1606 30.9233H64.9447L71.3538 13.4688H73.5356L79.9447 30.9233H77.7288L72.5129 16.2302H72.3765L67.1606 30.9233ZM67.9788 24.1052H76.9106V25.9802H67.9788V24.1052ZM87.6748 36.1052C86.7032 36.1052 85.868 35.9802 85.1691 35.7302C84.4702 35.4858 83.8879 35.162 83.4219 34.7586C82.9617 34.3608 82.5952 33.9347 82.3225 33.4802L83.9248 32.3552C84.1066 32.5938 84.3367 32.8665 84.6151 33.1733C84.8935 33.4858 85.2742 33.7557 85.7572 33.983C86.2458 34.216 86.885 34.3324 87.6748 34.3324C88.7316 34.3324 89.6038 34.0768 90.2913 33.5654C90.9788 33.054 91.3225 32.2529 91.3225 31.162V28.5029H91.1521C91.0043 28.7415 90.7941 29.037 90.5214 29.3893C90.2543 29.7358 89.868 30.0455 89.3623 30.3182C88.8623 30.5853 88.1862 30.7188 87.3339 30.7188C86.2771 30.7188 85.3282 30.4688 84.4873 29.9688C83.6521 29.4688 82.9901 28.7415 82.5015 27.787C82.0185 26.8324 81.7771 25.6733 81.7771 24.3097C81.7771 22.9688 82.0129 21.8012 82.4844 20.8069C82.956 19.8069 83.6123 19.0341 84.4532 18.4887C85.2941 17.9376 86.2657 17.662 87.368 17.662C88.2202 17.662 88.8964 17.804 89.3964 18.0881C89.9021 18.3665 90.2884 18.6847 90.5555 19.0427C90.8282 19.3949 91.0384 19.6847 91.1862 19.912H91.3907V17.8324H93.3339V31.2983C93.3339 32.4233 93.0782 33.3381 92.5668 34.0427C92.0612 34.7529 91.3793 35.2728 90.5214 35.6023C89.6691 35.9376 88.7202 36.1052 87.6748 36.1052ZM87.6066 28.912C88.4134 28.912 89.0952 28.7273 89.6521 28.358C90.2089 27.9887 90.6322 27.4574 90.9219 26.7643C91.2117 26.0711 91.3566 25.2415 91.3566 24.2756C91.3566 23.3324 91.2146 22.5001 90.9305 21.7785C90.6464 21.0569 90.2259 20.4915 89.6691 20.0824C89.1123 19.6733 88.4248 19.4688 87.6066 19.4688C86.7543 19.4688 86.0441 19.6847 85.4759 20.1165C84.9134 20.5483 84.4901 21.1279 84.206 21.8552C83.9276 22.5824 83.7884 23.3893 83.7884 24.2756C83.7884 25.1847 83.9305 25.9887 84.2146 26.6876C84.5043 27.3807 84.9305 27.9262 85.493 28.3239C86.0612 28.716 86.7657 28.912 87.6066 28.912ZM102.504 31.1961C101.243 31.1961 100.155 30.9177 99.2401 30.3608C98.331 29.7983 97.6293 29.0143 97.135 28.0086C96.6464 26.9972 96.4021 25.8211 96.4021 24.4802C96.4021 23.1393 96.6464 21.9574 97.135 20.9347C97.6293 19.9063 98.3168 19.1052 99.1975 18.5313C100.084 17.9518 101.118 17.662 102.3 17.662C102.982 17.662 103.655 17.7756 104.32 18.0029C104.984 18.2302 105.59 18.5995 106.135 19.1108C106.68 19.6165 107.115 20.287 107.439 21.1222C107.763 21.9574 107.925 22.9858 107.925 24.2074V25.0597H97.8339V23.3211H105.879C105.879 22.5824 105.732 21.9233 105.436 21.3438C105.146 20.7643 104.732 20.3069 104.192 19.9716C103.658 19.6364 103.027 19.4688 102.3 19.4688C101.499 19.4688 100.805 19.6677 100.22 20.0654C99.6407 20.4574 99.1947 20.9688 98.8822 21.5995C98.5697 22.2302 98.4134 22.9063 98.4134 23.6279V24.787C98.4134 25.7756 98.5839 26.6137 98.9248 27.3012C99.2714 27.983 99.7515 28.5029 100.365 28.8608C100.979 29.2131 101.692 29.3893 102.504 29.3893C103.033 29.3893 103.51 29.3154 103.936 29.1677C104.368 29.0143 104.74 28.787 105.053 28.4858C105.365 28.179 105.607 27.7983 105.777 27.3438L107.72 27.8893C107.516 28.5483 107.172 29.1279 106.689 29.6279C106.206 30.1222 105.609 30.5086 104.899 30.787C104.189 31.0597 103.391 31.1961 102.504 31.1961ZM112.996 23.0483V30.9233H110.984V17.8324H112.928V19.8779H113.098C113.405 19.2131 113.871 18.679 114.496 18.2756C115.121 17.8665 115.928 17.662 116.916 17.662C117.803 17.662 118.578 17.8438 119.243 18.2074C119.908 18.5654 120.425 19.1108 120.794 19.8438C121.163 20.5711 121.348 21.4915 121.348 22.6052V30.9233H119.337V22.7415C119.337 21.7131 119.07 20.912 118.536 20.3381C118.001 19.7586 117.269 19.4688 116.337 19.4688C115.695 19.4688 115.121 19.608 114.615 19.8864C114.115 20.1648 113.72 20.5711 113.43 21.1052C113.141 21.6393 112.996 22.287 112.996 23.0483ZM130.342 31.1961C129.114 31.1961 128.058 30.9063 127.171 30.3268C126.285 29.7472 125.603 28.9489 125.126 27.9319C124.649 26.9148 124.41 25.7529 124.41 24.4461C124.41 23.1165 124.654 21.9432 125.143 20.9262C125.637 19.9035 126.325 19.1052 127.205 18.5313C128.092 17.9518 129.126 17.662 130.308 17.662C131.228 17.662 132.058 17.8324 132.796 18.1733C133.535 18.5143 134.14 18.9915 134.612 19.6052C135.083 20.2188 135.376 20.9347 135.489 21.7529H133.478C133.325 21.1563 132.984 20.6279 132.455 20.1677C131.933 19.7018 131.228 19.4688 130.342 19.4688C129.558 19.4688 128.87 19.6733 128.279 20.0824C127.694 20.4858 127.237 21.0569 126.907 21.7955C126.583 22.5285 126.421 23.3893 126.421 24.3779C126.421 25.3893 126.58 26.2699 126.899 27.0199C127.222 27.7699 127.677 28.3523 128.262 28.7671C128.853 29.1819 129.546 29.3893 130.342 29.3893C130.864 29.3893 131.339 29.2983 131.765 29.1165C132.191 28.9347 132.552 28.6733 132.847 28.3324C133.143 27.9915 133.353 27.5824 133.478 27.1052H135.489C135.376 27.8779 135.095 28.5739 134.646 29.1932C134.202 29.8069 133.614 30.2955 132.881 30.6591C132.154 31.0171 131.308 31.1961 130.342 31.1961ZM139.725 35.8324C139.384 35.8324 139.08 35.804 138.813 35.7472C138.546 35.6961 138.362 35.6449 138.259 35.5938L138.771 33.8211C139.259 33.9461 139.691 33.9915 140.066 33.9574C140.441 33.9233 140.774 33.7557 141.063 33.4546C141.359 33.1591 141.629 32.679 141.873 32.0143L142.248 30.9915L137.407 17.8324H139.589L143.202 28.2643H143.339L146.952 17.8324H149.134L143.577 32.8324C143.327 33.5086 143.018 34.0682 142.649 34.5114C142.279 34.9603 141.85 35.2927 141.362 35.5086C140.879 35.7245 140.333 35.8324 139.725 35.8324Z" fill="white"/>
<path d="M24.1407 6.12113L6.2163 18.3162L13.0628 38.0483H35.2185L42.065 18.3162L24.1407 6.12113ZM24.1407 0L48.2817 16.4247L39.0607 43.0004H9.22069L-0.000366211 16.4247L24.1407 0Z" fill="#EF6D58"/>
<path d="M23.6118 13.8659L33.1676 20.367L29.5177 30.8872H17.706L14.0561 20.367L23.6118 13.8659Z" fill="#EF6D58"/>
</g>
<defs>
<clipPath id="clip0_1_2">
<rect width="150" height="43" fill="white"/>
</clipPath>
</defs>
</svg>
